<svg width="24" height="24" viewBox="0 0 24 24" fill="none" xmlns="http://www.w3.org/2000/svg">
<path fill-rule="evenodd" clip-rule="evenodd" d="M12 22C17.5228 22 22 17.5228 22 12C22 6.47715 17.5228 2 12 2C6.47715 2 2 6.47715 2 12C2 17.5228 6.47715 22 12 22ZM16.5008 12.7206C16.178 12.2892 15.7242 12.0098 15.1392 11.8824C15.5729 11.7255 15.9158 11.4363 16.1679 11.0147C16.4201 10.5833 16.5461 10.1275 16.5461 9.64706C16.5461 8.84314 16.2284 8.20098 15.593 7.72059C14.9576 7.2402 14.0852 7 12.9758 7H7V9.22059H8.059V14.7794H7V17H13.3086C14.4685 17 15.3712 16.7451 16.0166 16.2353C16.6722 15.7255 17 15.0392 17 14.1765C17 13.6373 16.8336 13.152 16.5008 12.7206ZM10.8578 11.0294V9.16176H12.4766C13.3439 9.16176 13.7776 9.46078 13.7776 10.0588C13.7776 10.3529 13.6667 10.5882 13.4448 10.7647C13.233 10.9412 12.9153 11.0294 12.4917 11.0294H10.8578ZM12.7943 14.7941H10.8578V12.9853H12.885C13.7524 12.9853 14.1861 13.2647 14.1861 13.8235C14.1861 14.4706 13.7221 14.7941 12.7943 14.7941Z" fill="#BCBCBC"/>
</svg>
