<svg width="25" height="25" viewBox="0 0 25 25" fill="none" xmlns="http://www.w3.org/2000/svg">
<mask id="mask0_738_1325" style="mask-type:alpha" maskUnits="userSpaceOnUse" x="0" y="0" width="25" height="25">
<rect x="0.874512" y="0.745605" width="24" height="24" fill="#D9D9D9"/>
</mask>
<g mask="url(#mask0_738_1325)">
<path d="M11.8745 21.6956C9.85785 21.4456 8.18701 20.5664 6.86201 19.0581C5.53701 17.5498 4.87451 15.7789 4.87451 13.7456C4.87451 12.6456 5.09118 11.5914 5.52451 10.5831C5.95785 9.57477 6.57451 8.69561 7.37451 7.94561L8.79951 9.37061C8.16618 9.93727 7.68701 10.5956 7.36201 11.3456C7.03701 12.0956 6.87451 12.8956 6.87451 13.7456C6.87451 15.2123 7.34118 16.5081 8.27451 17.6331C9.20785 18.7581 10.4078 19.4456 11.8745 19.6956V21.6956ZM13.8745 21.6956V19.6956C15.3245 19.4289 16.5203 18.7373 17.462 17.6206C18.4037 16.5039 18.8745 15.2123 18.8745 13.7456C18.8745 12.0789 18.2912 10.6623 17.1245 9.49561C15.9578 8.32894 14.5412 7.74561 12.8745 7.74561H12.7995L13.8995 8.84561L12.4995 10.2456L8.99951 6.74561L12.4995 3.24561L13.8995 4.64561L12.7995 5.74561H12.8745C15.1078 5.74561 16.9995 6.52061 18.5495 8.07061C20.0995 9.62061 20.8745 11.5123 20.8745 13.7456C20.8745 15.7623 20.212 17.5248 18.887 19.0331C17.562 20.5414 15.8912 21.4289 13.8745 21.6956Z" fill="#BCBCBC"/>
</g>
</svg>
