<svg width="24" height="24" viewBox="0 0 24 24" fill="none" xmlns="http://www.w3.org/2000/svg">
<path d="M9.73105 11.4052C9.9272 11.1158 10.1766 10.8663 10.4661 10.6702L8.05565 4.8501C6.25305 5.73432 4.79518 7.1922 3.91095 8.99479L9.73105 11.4052Z" fill="#BCBCBC"/>
<path d="M20.5095 15.8713C21.1635 13.9713 21.1635 11.9073 20.5095 10.0073L14.6894 12.4178C14.7557 12.7619 14.7557 13.1155 14.6894 13.4596L20.5095 15.8713Z" fill="#BCBCBC"/>
<path d="M13.5339 10.6702C13.8234 10.8663 14.0728 11.1158 14.269 11.4052L20.0891 8.99479C19.2048 7.1922 17.747 5.73432 15.9444 4.8501L13.5339 10.6702Z" fill="#BCBCBC"/>
<path d="M10.4661 15.2087C10.1766 15.0125 9.9272 14.7631 9.73105 14.4736L3.91095 16.8841C4.79518 18.6867 6.25305 20.1445 8.05565 21.0288L10.4661 15.2087Z" fill="#BCBCBC"/>
<path d="M9.31064 13.4605C9.24428 13.1164 9.24428 12.7628 9.31064 12.4187L3.49054 10.0083C2.83649 11.9082 2.83649 13.9723 3.49054 15.8722L9.31064 13.4605Z" fill="#BCBCBC"/>
<path d="M14.269 14.4736C14.0728 14.7631 13.8234 15.0125 13.5339 15.2087L15.9444 21.0288C17.747 20.1445 19.2048 18.6867 20.0891 16.8841L14.269 14.4736Z" fill="#BCBCBC"/>
<path d="M12.5209 15.6289C12.1768 15.6953 11.8232 15.6953 11.4791 15.6289L9.06866 21.449C10.9686 22.1031 13.0327 22.1031 14.9326 21.449L12.5209 15.6289Z" fill="#BCBCBC"/>
<path d="M11.0869 11.5729C11.3572 11.3923 11.675 11.2959 12 11.2959C12.4357 11.2964 12.8535 11.4697 13.1616 11.7778C13.4697 12.0859 13.643 12.5037 13.6435 12.9394C13.6435 13.2644 13.5471 13.5822 13.3665 13.8524C13.1859 14.1227 12.9293 14.3334 12.6289 14.4578C12.3286 14.5821 11.9982 14.6147 11.6794 14.5513C11.3606 14.4879 11.0677 14.3313 10.8379 14.1015C10.6081 13.8716 10.4515 13.5788 10.3881 13.26C10.3247 12.9412 10.3572 12.6108 10.4816 12.3104C10.606 12.0101 10.8167 11.7535 11.0869 11.5729Z" fill="#BCBCBC"/>
<path d="M10.477 2.81954L11.4944 5.26128C11.536 5.36116 11.6061 5.4465 11.6961 5.50654C11.7861 5.56658 11.8918 5.59861 12 5.59861C12.1082 5.59861 12.2139 5.56658 12.3039 5.50654C12.3939 5.4465 12.464 5.36116 12.5056 5.26128L13.523 2.81954C13.5577 2.7363 13.5714 2.64577 13.5627 2.55598C13.5541 2.4662 13.5233 2.37994 13.4733 2.30489C13.4233 2.22983 13.3555 2.16829 13.2759 2.12575C13.1964 2.08321 13.1076 2.06098 13.0174 2.06104H10.9826C10.8924 2.06098 10.8036 2.08321 10.724 2.12575C10.6445 2.16829 10.5767 2.22983 10.5267 2.30489C10.4767 2.37994 10.4459 2.4662 10.4373 2.55598C10.4286 2.64577 10.4423 2.7363 10.477 2.81954Z" fill="#BCBCBC"/>
<path d="M14.1365 4.1958L13.517 5.68276C13.3922 5.98223 13.1815 6.23807 12.9116 6.41803C12.6416 6.59798 12.3244 6.69401 12 6.69401C11.6755 6.69401 11.3584 6.59798 11.0884 6.41803C10.8184 6.23807 10.6078 5.98223 10.483 5.68276L9.86347 4.1958C9.59341 4.26196 9.32827 4.34001 9.06802 4.42996L11.4785 10.2501C11.8226 10.1837 12.1762 10.1837 12.5203 10.2501L14.9307 4.42996C14.6713 4.34022 14.4066 4.26217 14.1365 4.1958Z" fill="#BCBCBC"/>
</svg>
