<svg width="24" height="24" viewBox="0 0 24 24" fill="none" xmlns="http://www.w3.org/2000/svg">
<mask id="mask0_487_5605" style="mask-type:alpha" maskUnits="userSpaceOnUse" x="0" y="0" width="24" height="24">
<rect width="24" height="24" fill="#D9D9D9"/>
</mask>
<g mask="url(#mask0_487_5605)">
<path d="M19.2333 22.9333L18.0667 21.7667L19.8083 20H14.8333V18.3333H19.8083L18.0417 16.5667L19.2333 15.4L23 19.1667L19.2333 22.9333ZM3.66675 20C3.20558 20 2.8125 19.8375 2.4875 19.5125C2.1625 19.1875 2 18.7944 2 18.3333V5.66675C2 5.20558 2.1625 4.8125 2.4875 4.4875C2.8125 4.1625 3.20558 4 3.66675 4H20.3333C20.7944 4 21.1875 4.1625 21.5125 4.4875C21.8375 4.8125 22 5.20558 22 5.66675V13.8332C21.5722 13.6111 21.1263 13.4444 20.6625 13.3332C20.1987 13.2222 19.7223 13.1667 19.2333 13.1667C17.5444 13.1667 16.1111 13.7556 14.9333 14.9332C13.7556 16.1111 13.1667 17.5444 13.1667 19.2333V20H3.66675ZM12 12.6167L20.3333 7.33325V5.66675L12 10.8833L3.66675 5.66675V7.33325L12 12.6167Z" fill="#BCBCBC"/>
</g>
</svg>
