<svg width="32" height="32" viewBox="0 0 32 32" fill="none" xmlns="http://www.w3.org/2000/svg">
<path d="M12.9748 15.207C13.2363 14.8211 13.5689 14.4885 13.9548 14.2269L10.7409 6.4668C8.33742 7.64577 6.39358 9.5896 5.21461 11.9931L12.9748 15.207Z" fill="#BCBCBC"/>
<path d="M27.346 21.1618C28.218 18.6286 28.218 15.8765 27.346 13.3433L19.5858 16.5572C19.6743 17.016 19.6743 17.4875 19.5858 17.9463L27.346 21.1618Z" fill="#BCBCBC"/>
<path d="M18.0452 14.2269C18.4311 14.4885 18.7637 14.8211 19.0253 15.207L26.7854 11.9931C25.6064 9.5896 23.6626 7.64577 21.2591 6.4668L18.0452 14.2269Z" fill="#BCBCBC"/>
<path d="M13.9548 20.2779C13.5689 20.0164 13.2363 19.6838 12.9748 19.2979L5.21461 22.5118C6.39358 24.9152 8.33742 26.8591 10.7409 28.038L13.9548 20.2779Z" fill="#BCBCBC"/>
<path d="M12.4142 17.9472C12.3257 17.4884 12.3257 17.0169 12.4142 16.5582L4.65405 13.3442C3.78198 15.8775 3.78198 18.6296 4.65405 21.1628L12.4142 17.9472Z" fill="#BCBCBC"/>
<path d="M19.0253 19.2979C18.7637 19.6838 18.4311 20.0164 18.0452 20.2779L21.2591 28.038C23.6626 26.8591 25.6064 24.9152 26.7854 22.5118L19.0253 19.2979Z" fill="#BCBCBC"/>
<path d="M16.6945 20.8384C16.2357 20.9269 15.7642 20.9269 15.3055 20.8384L12.0915 28.5985C14.6248 29.4706 17.3769 29.4706 19.9101 28.5985L16.6945 20.8384Z" fill="#BCBCBC"/>
<path d="M14.7826 15.4308C15.1429 15.19 15.5666 15.0615 16 15.0615C16.581 15.0622 17.138 15.2933 17.5488 15.7041C17.9596 16.1149 18.1906 16.6719 18.1913 17.2528C18.1913 17.6862 18.0628 18.1099 17.822 18.4703C17.5812 18.8306 17.239 19.1115 16.8386 19.2773C16.4382 19.4432 15.9976 19.4866 15.5725 19.402C15.1474 19.3175 14.757 19.1088 14.4505 18.8023C14.1441 18.4959 13.9354 18.1054 13.8508 17.6803C13.7663 17.2553 13.8097 16.8147 13.9755 16.4143C14.1414 16.0138 14.4222 15.6716 14.7826 15.4308Z" fill="#BCBCBC"/>
<path d="M13.9694 3.75939L15.3259 7.01504C15.3813 7.14821 15.4749 7.262 15.5948 7.34205C15.7148 7.4221 15.8558 7.46482 16 7.46482C16.1442 7.46482 16.2852 7.4221 16.4052 7.34205C16.5252 7.262 16.6187 7.14821 16.6741 7.01504L18.0306 3.75939C18.077 3.64841 18.0952 3.52769 18.0836 3.40798C18.0721 3.28826 18.0311 3.17326 17.9644 3.07318C17.8977 2.9731 17.8073 2.89106 17.7013 2.83434C17.5952 2.77761 17.4768 2.74797 17.3565 2.74805H14.6435C14.5232 2.74797 14.4048 2.77761 14.2987 2.83434C14.1927 2.89106 14.1023 2.9731 14.0356 3.07318C13.9689 3.17326 13.9279 3.28826 13.9164 3.40798C13.9049 3.52769 13.9231 3.64841 13.9694 3.75939Z" fill="#BCBCBC"/>
<path d="M18.8487 5.59424L18.0227 7.57685C17.8563 7.97615 17.5754 8.31726 17.2154 8.55721C16.8555 8.79715 16.4326 8.92519 16 8.92519C15.5674 8.92519 15.1445 8.79715 14.7845 8.55721C14.4246 8.31726 14.1437 7.97615 13.9773 7.57685L13.1513 5.59424C12.7912 5.68245 12.4377 5.78652 12.0907 5.90645L15.3046 13.6666C15.7634 13.5781 16.2349 13.5781 16.6937 13.6666L19.9076 5.90645C19.5617 5.78679 19.2088 5.68273 18.8487 5.59424Z" fill="#BCBCBC"/>
</svg>
