<svg width="32" height="32" viewBox="0 0 32 32" fill="none" xmlns="http://www.w3.org/2000/svg">
<mask id="mask0_463_237" style="mask-type:alpha" maskUnits="userSpaceOnUse" x="0" y="0" width="32" height="32">
<rect width="32" height="32" fill="#D9D9D9"/>
</mask>
<g mask="url(#mask0_463_237)">
<path d="M8.00001 18.6668C7.26668 18.6668 6.6389 18.4057 6.11668 17.8835C5.59445 17.3613 5.33334 16.7335 5.33334 16.0002C5.33334 15.2668 5.59445 14.6391 6.11668 14.1168C6.6389 13.5946 7.26668 13.3335 8.00001 13.3335C8.73334 13.3335 9.36112 13.5946 9.88334 14.1168C10.4056 14.6391 10.6667 15.2668 10.6667 16.0002C10.6667 16.7335 10.4056 17.3613 9.88334 17.8835C9.36112 18.4057 8.73334 18.6668 8.00001 18.6668ZM16 18.6668C15.2667 18.6668 14.6389 18.4057 14.1167 17.8835C13.5945 17.3613 13.3333 16.7335 13.3333 16.0002C13.3333 15.2668 13.5945 14.6391 14.1167 14.1168C14.6389 13.5946 15.2667 13.3335 16 13.3335C16.7333 13.3335 17.3611 13.5946 17.8833 14.1168C18.4056 14.6391 18.6667 15.2668 18.6667 16.0002C18.6667 16.7335 18.4056 17.3613 17.8833 17.8835C17.3611 18.4057 16.7333 18.6668 16 18.6668ZM24 18.6668C23.2667 18.6668 22.6389 18.4057 22.1167 17.8835C21.5945 17.3613 21.3333 16.7335 21.3333 16.0002C21.3333 15.2668 21.5945 14.6391 22.1167 14.1168C22.6389 13.5946 23.2667 13.3335 24 13.3335C24.7333 13.3335 25.3611 13.5946 25.8833 14.1168C26.4056 14.6391 26.6667 15.2668 26.6667 16.0002C26.6667 16.7335 26.4056 17.3613 25.8833 17.8835C25.3611 18.4057 24.7333 18.6668 24 18.6668Z" fill="#BCBCBC"/>
</g>
</svg>
