<svg width="32" height="32" viewBox="0 0 32 32" fill="none" xmlns="http://www.w3.org/2000/svg">
<mask id="mask0_463_187" style="mask-type:alpha" maskUnits="userSpaceOnUse" x="0" y="0" width="32" height="32">
<rect width="32" height="32" fill="#D9D9D9"/>
</mask>
<g mask="url(#mask0_463_187)">
<path d="M20.2667 19.7332L21.8 14.1999L17.0667 10.9332L15.5333 16.4665L20.2667 19.7332ZM5.33333 25.0999L4.23333 24.5665C3.54444 24.2777 3.07777 23.7832 2.83333 23.0832C2.58889 22.3832 2.62222 21.6888 2.93333 20.9999L5.33333 15.7999V25.0999ZM10.6667 27.9999C9.93333 27.9999 9.30555 27.7332 8.78333 27.1999C8.26111 26.6665 8 26.0332 8 25.2999V17.3332L11.5667 27.1332C11.6333 27.2888 11.6889 27.4388 11.7333 27.5832C11.7778 27.7277 11.8556 27.8665 11.9667 27.9999H10.6667ZM17.5333 27.8332C16.8444 28.0777 16.1556 28.0443 15.4667 27.7332C14.7778 27.4221 14.3111 26.9221 14.0667 26.2332L8.16666 9.93321C7.92222 9.24432 7.95555 8.56099 8.26666 7.88321C8.57777 7.20543 9.07777 6.74432 9.76666 6.49988L19.8 2.83321C20.4889 2.58876 21.1722 2.6221 21.85 2.93321C22.5278 3.24432 22.9889 3.74432 23.2333 4.43321L29.1667 20.7332C29.4111 21.4221 29.3778 22.1054 29.0667 22.7832C28.7556 23.461 28.2556 23.9221 27.5667 24.1665L17.5333 27.8332Z" fill="#BCBCBC"/>
</g>
</svg>
