<svg width="40" height="40" viewBox="0 0 40 40" fill="none" xmlns="http://www.w3.org/2000/svg">
<path d="M13.7019 6.59791C12.2123 6.66819 11.195 6.90591 10.3057 7.25536C9.38534 7.61404 8.60525 8.09536 7.82909 8.87432C7.05292 9.65328 6.57495 10.4339 6.21879 11.3557C5.87411 12.2469 5.64058 13.265 5.57478 14.7555C5.50898 16.2459 5.49442 16.725 5.5017 20.5268C5.50898 24.3287 5.52578 24.8053 5.59802 26.2988C5.66914 27.7881 5.90603 28.8051 6.25547 29.6946C6.61471 30.615 7.09548 31.3948 7.87473 32.1712C8.65397 32.9477 9.43406 33.4245 10.3581 33.7812C11.2485 34.1254 12.2669 34.36 13.757 34.4253C15.2472 34.4905 15.7268 34.5056 19.5276 34.4983C23.3284 34.4911 23.8069 34.4743 25.3001 34.4034C26.7934 34.3326 27.805 34.094 28.6949 33.7462C29.6153 33.3862 30.3956 32.9062 31.1715 32.1267C31.9474 31.3472 32.4251 30.566 32.781 29.6437C33.1259 28.7533 33.3603 27.7349 33.425 26.2459C33.4902 24.7515 33.5056 24.2744 33.4983 20.4731C33.4911 16.6718 33.474 16.1952 33.4031 14.7023C33.3323 13.2093 33.0951 12.1954 32.746 11.3053C32.3862 10.3849 31.906 9.60568 31.127 8.82868C30.348 8.05168 29.5663 7.57428 28.6442 7.21924C27.7532 6.87455 26.7354 6.63963 25.2453 6.57523C23.7551 6.51083 23.2754 6.49431 19.4733 6.50159C15.6711 6.50887 15.1951 6.52511 13.7019 6.59791ZM13.8654 31.9066C12.5004 31.8473 11.7592 31.6205 11.2653 31.4306C10.6112 31.1786 10.1453 30.874 9.65303 30.3865C9.16078 29.899 8.85838 29.4314 8.60301 28.7787C8.41121 28.2848 8.18021 27.5445 8.11637 26.1795C8.04693 24.7042 8.03237 24.2612 8.02425 20.5235C8.01613 16.7857 8.03041 16.3433 8.09509 14.8675C8.15333 13.5036 8.38153 12.7616 8.57109 12.2679C8.8231 11.613 9.12662 11.1479 9.61522 10.656C10.1038 10.164 10.57 9.86104 11.2233 9.60568C11.7166 9.41304 12.457 9.184 13.8214 9.11904C15.2979 9.04904 15.7403 9.03504 19.4775 9.02692C23.2147 9.0188 23.6582 9.0328 25.1352 9.09776C26.4991 9.15712 27.2414 9.38308 27.7345 9.57376C28.3889 9.82576 28.8545 10.1284 29.3465 10.6179C29.8384 11.1073 30.1417 11.5719 30.397 12.2265C30.59 12.7185 30.819 13.4585 30.8834 14.8238C30.9537 16.3002 30.9696 16.7429 30.9764 20.4798C30.9831 24.2167 30.9699 24.6605 30.9052 26.1358C30.8456 27.5008 30.6194 28.2423 30.4292 28.7367C30.1772 29.3906 29.8734 29.8568 29.3845 30.3484C28.8957 30.8401 28.43 31.1431 27.7765 31.3984C27.2837 31.5908 26.5425 31.8204 25.1792 31.8854C23.7027 31.9548 23.2603 31.9694 19.5217 31.9775C15.7831 31.9856 15.3421 31.9705 13.8657 31.9066M25.2786 13.0175C25.2791 13.3498 25.3782 13.6745 25.5633 13.9504C25.7484 14.2264 26.0112 14.4413 26.3184 14.5679C26.6256 14.6946 26.9635 14.7272 27.2893 14.6618C27.6151 14.5964 27.9142 14.4359 28.1487 14.2005C28.3833 13.9651 28.5427 13.6654 28.6069 13.3394C28.6712 13.0133 28.6373 12.6756 28.5095 12.3688C28.3817 12.0621 28.1659 11.8001 27.8892 11.616C27.6126 11.4319 27.2875 11.334 26.9552 11.3347C26.5098 11.3356 26.0829 11.5134 25.7685 11.8289C25.4541 12.1445 25.2778 12.572 25.2786 13.0175ZM12.3117 20.514C12.3195 24.4844 15.544 27.6957 19.5136 27.6881C23.4832 27.6806 26.6968 24.4564 26.6892 20.486C26.6817 16.5155 23.4563 13.3034 19.4862 13.3112C15.516 13.3191 12.3041 16.5441 12.3117 20.514ZM14.8334 20.5089C14.8315 19.5859 15.1034 18.6831 15.6147 17.9147C16.126 17.1462 16.8537 16.5466 17.7057 16.1917C18.5578 15.8368 19.4959 15.7425 20.4015 15.9208C21.3072 16.0991 22.1396 16.5419 22.7935 17.1933C23.4475 17.8446 23.8936 18.6753 24.0755 19.5802C24.2573 20.4851 24.1668 21.4236 23.8153 22.277C23.4637 23.1305 22.867 23.8605 22.1006 24.3748C21.3341 24.8891 20.4324 25.1646 19.5094 25.1665C18.8965 25.1677 18.2894 25.0483 17.7227 24.8149C17.156 24.5815 16.6408 24.2388 16.2066 23.8063C15.7724 23.3738 15.4276 22.86 15.192 22.2942C14.9564 21.7284 14.8345 21.1218 14.8334 20.5089Z" fill="#BCBCBC"/>
</svg>
