<svg width="40" height="40" viewBox="0 0 40 40" fill="none" xmlns="http://www.w3.org/2000/svg">
<path fill-rule="evenodd" clip-rule="evenodd" d="M6.4944 17.9456C15.1063 14.1935 20.8489 11.7199 23.7222 10.5248C31.9261 7.11253 33.6308 6.51978 34.7419 6.50021C34.9863 6.4959 35.5327 6.55647 35.8867 6.84367C36.1855 7.08617 36.2678 7.41376 36.3071 7.64368C36.3464 7.8736 36.3954 8.39737 36.3565 8.80662C35.9119 13.4778 33.9883 24.8135 33.0096 30.0453C32.5955 32.2591 31.7801 33.0013 30.9907 33.074C29.2752 33.2318 27.9725 31.9402 26.311 30.8511C23.711 29.1467 22.2421 28.0858 19.7184 26.4226C16.8017 24.5006 18.6924 23.4442 20.3546 21.7178C20.7896 21.266 28.3482 14.3909 28.4945 13.7672C28.5128 13.6892 28.5298 13.3984 28.3571 13.2449C28.1844 13.0914 27.9294 13.1439 27.7454 13.1856C27.4847 13.2448 23.3311 15.9901 15.2848 21.4217C14.1058 22.2312 13.0379 22.6257 12.0811 22.605C11.0264 22.5822 8.99739 22.0086 7.48906 21.5183C5.63904 20.917 4.16868 20.599 4.29671 19.5777C4.3634 19.0457 5.09596 18.5017 6.4944 17.9456Z" fill="#BCBCBC"/>
</svg>
