<svg width="1106" height="770" viewBox="0 0 1106 770" fill="none" xmlns="http://www.w3.org/2000/svg">
<g clip-path="url(#clip0_640_1284)">
<path d="M143 73.9H411C428.7 49.3 446.3 24.6 464 0H0L53.1 73.9L85.3 118.7L232.3 323.5C247.2 302.7 262.1 281.8 277.1 261C243.1 213.6 209.2 166.1 175.2 118.7C164.4 103.8 153.7 88.8 143 73.9Z" fill="url(#paint0_linear_640_1284)"/>
<path d="M752.7 279.601C714.3 226.001 675.9 172.301 637.5 118.701C626.8 103.701 616.1 88.8008 605.4 73.9008C602.9 70.4008 600.5 67.0008 598 63.6008C583 42.7008 568 21.7008 553 0.800781C538 21.7008 523 42.6008 508 63.6008C505.5 67.0008 503.1 70.5008 500.6 73.9008C489.9 88.8008 479.2 103.801 468.5 118.701C430.1 172.301 391.7 226.001 353.3 279.601C342.8 294.201 332.3 308.901 321.9 323.501C307 344.301 292.1 365.101 277.2 385.901L322.2 448.601C337.1 427.801 352 407.101 366.8 386.301C377.3 371.701 387.8 357.001 398.2 342.401C438.3 286.401 478.5 230.301 518.6 174.301C530 158.301 541.5 142.301 552.9 126.401C564.3 142.401 575.8 158.401 587.2 174.301C627.3 230.301 667.5 286.401 707.6 342.401C718.1 357.001 728.6 371.701 739 386.301C753.9 407.101 768.8 427.801 783.6 448.601L828.6 385.901C813.7 365.101 798.8 344.301 783.9 323.501C773.7 308.901 763.2 294.301 752.7 279.601Z" fill="url(#paint1_linear_640_1284)"/>
<path d="M642 -0.0996094C659.7 24.5004 677.3 49.2004 695 73.8004H961.3C917.2 136.2 873.1 198.6 829 260.9C843.9 281.7 858.8 302.6 873.8 323.4L1020.9 118.6L1053.1 73.8004L1106.2 -0.0996094H642Z" fill="url(#paint2_linear_640_1284)"/>
<path d="M727 118.7C750.5 151.5 774 184.3 797.5 217.1C821 184.3 844.5 151.5 868 118.7H727Z" fill="url(#paint3_linear_640_1284)"/>
<path d="M584.4 602.4C573.9 617 563.4 631.7 553 646.3C542.5 631.7 532 617 521.6 602.4C511.5 588.3 501.4 574.2 491.3 560C476.5 580.7 461.6 601.4 446.8 622.1L508.7 708.3L553.1 770.1L597.5 708.3L659.4 622.1C644.6 601.4 629.7 580.7 614.9 560C604.7 574.1 594.6 588.2 584.4 602.4Z" fill="url(#paint4_linear_640_1284)"/>
<path d="M553 558.5C563.1 544.4 573.2 530.3 583.3 516.1C587.5 510.2 591.7 504.4 595.9 498.5C585.8 484.4 575.7 470.3 565.6 456.1C561.4 450.2 557.2 444.4 553 438.5C548.8 444.4 544.6 450.2 540.4 456.1C530.3 470.2 520.2 484.3 510.1 498.5C514.3 504.4 518.5 510.2 522.7 516.1C532.8 530.2 542.9 544.3 553 558.5Z" fill="url(#paint5_linear_640_1284)"/>
<path d="M673.4 390.3C648.7 355.8 623.9 321.2 599.2 286.7C583.8 265.2 568.4 243.7 553 222.2C537.6 243.7 522.2 265.2 506.8 286.7C482.1 321.2 457.3 355.8 432.6 390.3C422.1 404.9 411.6 419.6 401.2 434.2C386.3 454.9 371.5 475.7 356.6 496.5L402.9 560.9C417.7 540.2 432.6 519.5 447.4 498.7C457.9 484.1 468.4 469.4 478.8 454.8C488.9 440.7 499 426.6 509.1 412.4C513.3 406.5 517.5 400.7 521.7 394.8C532.1 380.3 542.5 365.7 553 351.2C563.4 365.7 573.8 380.3 584.2 394.8C588.4 400.7 592.6 406.5 596.8 412.4C606.9 426.5 617 440.7 627.1 454.8C637.6 469.4 648 484.1 658.5 498.7C673.3 519.4 688.2 540.1 703 560.9L749.3 496.5C734.4 475.7 719.6 455 704.7 434.3C694.4 419.6 683.9 405 673.4 390.3Z" fill="url(#paint6_linear_640_1284)"/>
<path d="M238 118.7C261.5 151.5 285 184.3 308.5 217.1C332 184.3 355.5 151.5 379 118.7H238Z" fill="url(#paint7_linear_640_1284)"/>
<path d="M404.4 61.0002H117.7L132.5 81.6002C140.1 92.2002 147.6 102.7 155.2 113.3L164.6 126.4L214.6 196.2L261.1 261.2L246.4 281.7L232.4 301.3L96 111.3L63.8 66.5002L25.5 13.2002H438.7C427.2 29.1002 415.8 45.1002 404.4 61.0002Z" fill="#FDDA56"/>
<path d="M812.8 386.1L783.9 426.4L772.2 410.1L749.9 378.9C739.4 364.3 728.9 349.6 718.5 335L714.9 330C675.9 275.6 637 221.2 598 166.8C586.6 150.8 575.1 134.8 563.7 118.9L553 104.1L542.4 118.9C535.1 129.1 527.7 139.4 520.4 149.6L508 166.9C467.9 222.9 427.7 279 387.6 335L371.9 356.9L356.2 378.9C344.9 394.7 333.5 410.6 322.2 426.4L293.2 386.1C300.8 375.6 308.3 365 315.9 354.4L332.5 331.2L348.2 309.3L363.9 287.3C382.8 260.9 401.7 234.5 420.6 208.1C440.1 180.9 459.6 153.6 479.2 126.3C489.9 111.3 500.6 96.3998 511.3 81.4998C513.6 78.1998 516 74.9998 518.3 71.6998L518.7 71.1998L541.5 39.2998L553 23.2998C559 31.5998 564.9 39.8998 570.8 48.1998L587.3 71.1998C589.8 74.5998 592.2 78.0998 594.7 81.4998C604.7 95.4998 614.8 109.5 624.8 123.5L626.8 126.3C645.2 152 663.7 177.8 682.1 203.5C702.1 231.4 722.1 259.3 742.1 287.2L757.8 309.2L773.5 331.1L795.8 362.3L812.8 386.1Z" fill="#FDDA56"/>
<path d="M1080.6 13.2002L1042.3 66.5002L1010.1 111.3L873.7 301.3C864.1 287.9 854.5 274.5 845 261.2L888.6 199.6L972 81.6002L986.5 61.0002H701.7C690.3 45.0002 678.9 29.1002 667.4 13.2002H1080.6Z" fill="#FDDA56"/>
<path d="M842.6 131.9L822.2 160.3L797.5 194.8C789.3 183.4 781.1 171.9 772.9 160.5C766.1 151 759.2 141.4 752.4 131.9H842.6Z" fill="#FDDA56"/>
<path d="M643.2 622.301L586.8 700.901L553 747.901L519.2 700.901L462.8 622.301L479 599.701L491.2 582.601L495.5 588.701L510.9 610.201L526.4 631.901L542.3 654.101L552.9 668.901L563.5 654.101C574 639.501 584.5 624.801 594.9 610.201C601.5 601.001 608 591.801 614.6 582.701L625 597.201L643.2 622.301Z" fill="#FDDA56"/>
<path d="M579.9 498.7C579.6 499.1 579.3 499.5 579 500C576.9 502.9 574.8 505.8 572.7 508.8C567.6 515.9 562.6 522.9 557.5 530C556 532.1 554.5 534.2 553 536.3C550.3 532.6 547.7 528.8 545 525.1C541.1 519.7 537.2 514.2 533.3 508.8C531.2 505.9 529.2 503 527.1 500.2C526.8 499.7 526.4 499.3 526.1 498.8L535.6 485.6L551 464.1C551.7 463.2 552.3 462.3 553 461.3L555 464.1L570 485L579.9 498.7Z" fill="#FDDA56"/>
<path d="M733.4 496.7L703.2 538.7C691.9 522.9 680.6 507.1 669.3 491.4L667 488.2C657.3 474.6 647.6 461.1 637.9 447.5L634 442C625.2 429.7 616.4 417.4 607.5 405.1C603.3 399.2 599.1 393.4 594.9 387.5L579.3 365.7L563.7 343.9L553 329L542.4 343.8C535.9 352.9 529.4 361.9 522.9 371L511.1 387.5C506.9 393.3 502.7 399.2 498.5 405L498.4 405.1C489.5 417.5 480.6 429.9 471.8 442.3L468.1 447.5C457.7 462.1 447.2 476.7 436.8 491.3L436.7 491.4L426.5 505.7C418.6 516.7 410.7 527.8 402.8 538.8L372.6 496.8L385.4 479C394.2 466.7 403 454.5 411.8 442.2L425.9 422.5L443.2 398.3L458.7 376.7C478.3 349.4 497.9 322 517.5 294.7C529.3 278.1 541.2 261.6 553.1 245C564.9 261.6 576.8 278.1 588.7 294.7C608.7 322.5 628.6 350.4 648.6 378.2L663 398.3C673.5 412.9 684 427.6 694.4 442.2L719.3 476.9L733.4 496.7Z" fill="#FDDA56"/>
<path d="M353.6 131.9C346.8 141.4 339.9 151 333.1 160.5C324.9 171.9 316.7 183.4 308.5 194.8L283.8 160.3L263.4 131.9H353.6Z" fill="#FDDA56"/>
</g>
<defs>
<linearGradient id="paint0_linear_640_1284" x1="228.863" y1="947.43" x2="231.973" y2="12.7101" gradientUnits="userSpaceOnUse">
<stop stop-color="#EE6A24"/>
<stop offset="1" stop-color="#FDDA56"/>
</linearGradient>
<linearGradient id="paint1_linear_640_1284" x1="551.128" y1="948.501" x2="554.238" y2="13.7808" gradientUnits="userSpaceOnUse">
<stop stop-color="#EE6A24"/>
<stop offset="1" stop-color="#FDDA56"/>
</linearGradient>
<linearGradient id="paint2_linear_640_1284" x1="870.835" y1="949.56" x2="873.945" y2="14.8405" gradientUnits="userSpaceOnUse">
<stop stop-color="#EE6A24"/>
<stop offset="1" stop-color="#FDDA56"/>
</linearGradient>
<linearGradient id="paint3_linear_640_1284" x1="794.731" y1="949.31" x2="797.841" y2="14.5902" gradientUnits="userSpaceOnUse">
<stop stop-color="#EE6A24"/>
<stop offset="1" stop-color="#FDDA56"/>
</linearGradient>
<linearGradient id="paint4_linear_640_1284" x1="551.929" y1="948.5" x2="555.039" y2="13.7801" gradientUnits="userSpaceOnUse">
<stop stop-color="#EE6A24"/>
<stop offset="1" stop-color="#FDDA56"/>
</linearGradient>
<linearGradient id="paint5_linear_640_1284" x1="551.503" y1="948.49" x2="554.623" y2="13.78" gradientUnits="userSpaceOnUse">
<stop stop-color="#EE6A24"/>
<stop offset="1" stop-color="#FDDA56"/>
</linearGradient>
<linearGradient id="paint6_linear_640_1284" x1="551.491" y1="948.5" x2="554.601" y2="13.7802" gradientUnits="userSpaceOnUse">
<stop stop-color="#EE6A24"/>
<stop offset="1" stop-color="#FDDA56"/>
</linearGradient>
<linearGradient id="paint7_linear_640_1284" x1="305.737" y1="947.68" x2="308.847" y2="12.9602" gradientUnits="userSpaceOnUse">
<stop stop-color="#EE6A24"/>
<stop offset="1" stop-color="#FDDA56"/>
</linearGradient>
<clipPath id="clip0_640_1284">
<rect width="1106" height="770" fill="white"/>
</clipPath>
</defs>
</svg>
