<svg width="21" height="21" viewBox="0 0 21 21" fill="none" xmlns="http://www.w3.org/2000/svg">
<path d="M17.0923 10.2529C18.3207 10.5206 19.2738 11.1074 19.9516 12.0132C20.6505 12.9191 21 13.9382 21 15.0706C21 16.8824 20.3116 18.3235 18.9349 19.3941C17.5794 20.4647 15.6838 21 13.2481 21H0V16.3368H2.2239V4.66323H0V0H12.5492C14.879 0 16.711 0.504411 18.0454 1.51323C19.3797 2.52206 20.0469 3.87059 20.0469 5.55882C20.0469 6.56765 19.7821 7.525 19.2526 8.43088C18.7231 9.31618 18.003 9.92353 17.0923 10.2529ZM8.10135 4.5397V8.46176H11.5325C12.4221 8.46176 13.0892 8.27647 13.534 7.90588C14 7.53529 14.233 7.04118 14.233 6.42353C14.233 5.16765 13.3222 4.5397 11.5007 4.5397H8.10135ZM8.10135 16.3676H12.1679C14.1165 16.3676 15.0907 15.6882 15.0907 14.3294C15.0907 13.1559 14.18 12.5691 12.3585 12.5691H8.10135V16.3676Z" fill="#BCBCBC"/>
</svg>
