<svg width="24" height="24" viewBox="0 0 24 24" fill="none" xmlns="http://www.w3.org/2000/svg">
<path d="M15.67 11.8102C16.4025 11.9743 16.9708 12.3343 17.3749 12.8899C17.7916 13.4456 18 14.0707 18 14.7653C18 15.8767 17.5896 16.7607 16.7687 17.4174C15.9604 18.0741 14.8302 18.4024 13.3778 18.4024H5.47849V15.542H6.80452V8.38143H5.47849V5.521H12.9611C14.3503 5.521 15.4427 5.8304 16.2383 6.44922C17.0339 7.06803 17.4317 7.89522 17.4317 8.93079C17.4317 9.5496 17.2738 10.1368 16.9581 10.6925C16.6424 11.2356 16.213 11.6081 15.67 11.8102ZM10.309 8.30566V10.7115H12.3549C12.8853 10.7115 13.2831 10.5978 13.5483 10.3705C13.8262 10.1432 13.9651 9.84007 13.9651 9.4612C13.9651 8.69084 13.422 8.30566 12.336 8.30566H10.309ZM10.309 15.5609H12.7338C13.8956 15.5609 14.4766 15.1442 14.4766 14.3107C14.4766 13.5908 13.9335 13.2309 12.8474 13.2309H10.309V15.5609Z" fill="#BCBCBC"/>
</svg>
