<svg width="25" height="25" viewBox="0 0 25 25" fill="none" xmlns="http://www.w3.org/2000/svg">
<mask id="mask0_625_1289" style="mask-type:alpha" maskUnits="userSpaceOnUse" x="0" y="0" width="25" height="25">
<rect x="0.463623" y="0.120667" width="24" height="24" fill="#D9D9D9"/>
</mask>
<g mask="url(#mask0_625_1289)">
<path d="M22.4636 6.12067V18.1207C22.4636 18.6707 22.2678 19.1415 21.8761 19.5332C21.4845 19.9248 21.0136 20.1207 20.4636 20.1207H4.46362C3.91362 20.1207 3.44279 19.9248 3.05112 19.5332C2.65946 19.1415 2.46362 18.6707 2.46362 18.1207V6.12067C2.46362 5.57067 2.65946 5.09983 3.05112 4.70817C3.44279 4.3165 3.91362 4.12067 4.46362 4.12067H20.4636C21.0136 4.12067 21.4845 4.3165 21.8761 4.70817C22.2678 5.09983 22.4636 5.57067 22.4636 6.12067ZM4.46362 8.12067H20.4636V6.12067H4.46362V8.12067ZM4.46362 12.1207V18.1207H20.4636V12.1207H4.46362Z" fill="#BCBCBC"/>
</g>
</svg>
