<svg width="32" height="32" viewBox="0 0 32 32" fill="none" xmlns="http://www.w3.org/2000/svg">
<mask id="mask0_463_492" style="mask-type:alpha" maskUnits="userSpaceOnUse" x="0" y="0" width="32" height="32">
<rect width="32" height="32" fill="#D9D9D9"/>
</mask>
<g mask="url(#mask0_463_492)">
<path d="M7.79999 22.7998C8.93332 21.9332 10.2 21.2498 11.6 20.7498C13 20.2498 14.4667 19.9998 16 19.9998C17.5333 19.9998 19 20.2498 20.4 20.7498C21.8 21.2498 23.0667 21.9332 24.2 22.7998C24.9778 21.8887 25.5833 20.8554 26.0167 19.6998C26.45 18.5443 26.6667 17.3109 26.6667 15.9998C26.6667 13.0443 25.6278 10.5276 23.55 8.44984C21.4722 6.37206 18.9555 5.33317 16 5.33317C13.0444 5.33317 10.5278 6.37206 8.44999 8.44984C6.37221 10.5276 5.33332 13.0443 5.33332 15.9998C5.33332 17.3109 5.54999 18.5443 5.98332 19.6998C6.41666 20.8554 7.02221 21.8887 7.79999 22.7998ZM16 17.3332C14.6889 17.3332 13.5833 16.8832 12.6833 15.9832C11.7833 15.0832 11.3333 13.9776 11.3333 12.6665C11.3333 11.3554 11.7833 10.2498 12.6833 9.34984C13.5833 8.44984 14.6889 7.99984 16 7.99984C17.3111 7.99984 18.4167 8.44984 19.3167 9.34984C20.2167 10.2498 20.6667 11.3554 20.6667 12.6665C20.6667 13.9776 20.2167 15.0832 19.3167 15.9832C18.4167 16.8832 17.3111 17.3332 16 17.3332ZM16 29.3332C14.1555 29.3332 12.4222 28.9832 10.8 28.2832C9.17777 27.5832 7.76666 26.6332 6.56666 25.4332C5.36666 24.2332 4.41666 22.8221 3.71666 21.1998C3.01666 19.5776 2.66666 17.8443 2.66666 15.9998C2.66666 14.1554 3.01666 12.4221 3.71666 10.7998C4.41666 9.17761 5.36666 7.7665 6.56666 6.5665C7.76666 5.3665 9.17777 4.4165 10.8 3.7165C12.4222 3.0165 14.1555 2.6665 16 2.6665C17.8444 2.6665 19.5778 3.0165 21.2 3.7165C22.8222 4.4165 24.2333 5.3665 25.4333 6.5665C26.6333 7.7665 27.5833 9.17761 28.2833 10.7998C28.9833 12.4221 29.3333 14.1554 29.3333 15.9998C29.3333 17.8443 28.9833 19.5776 28.2833 21.1998C27.5833 22.8221 26.6333 24.2332 25.4333 25.4332C24.2333 26.6332 22.8222 27.5832 21.2 28.2832C19.5778 28.9832 17.8444 29.3332 16 29.3332Z" fill="#BCBCBC"/>
</g>
</svg>
