<svg width="32" height="32" viewBox="0 0 32 32" fill="none" xmlns="http://www.w3.org/2000/svg">
<mask id="mask0_418_4940" style="mask-type:alpha" maskUnits="userSpaceOnUse" x="0" y="0" width="32" height="32">
<rect width="32" height="32" fill="#D9D9D9"/>
</mask>
<g mask="url(#mask0_418_4940)">
<path d="M16 19.9998C17.1111 19.9998 18.0556 19.6109 18.8334 18.8332C19.6111 18.0554 20 17.1109 20 15.9998C20 14.8887 19.6111 13.9443 18.8334 13.1665C18.0556 12.3887 17.1111 11.9998 16 11.9998C14.8889 11.9998 13.9445 12.3887 13.1667 13.1665C12.3889 13.9443 12 14.8887 12 15.9998C12 17.1109 12.3889 18.0554 13.1667 18.8332C13.9445 19.6109 14.8889 19.9998 16 19.9998ZM16 29.3332C14.1556 29.3332 12.4222 28.9832 10.8 28.2832C9.1778 27.5832 7.76669 26.6332 6.56669 25.4332C5.36669 24.2332 4.41669 22.8221 3.71669 21.1998C3.01669 19.5776 2.66669 17.8443 2.66669 15.9998C2.66669 14.1554 3.01669 12.4221 3.71669 10.7998C4.41669 9.17761 5.36669 7.7665 6.56669 6.5665C7.76669 5.3665 9.1778 4.4165 10.8 3.7165C12.4222 3.0165 14.1556 2.6665 16 2.6665C17.8445 2.6665 19.5778 3.0165 21.2 3.7165C22.8222 4.4165 24.2334 5.3665 25.4334 6.5665C26.6334 7.7665 27.5834 9.17761 28.2834 10.7998C28.9834 12.4221 29.3334 14.1554 29.3334 15.9998C29.3334 17.8443 28.9834 19.5776 28.2834 21.1998C27.5834 22.8221 26.6334 24.2332 25.4334 25.4332C24.2334 26.6332 22.8222 27.5832 21.2 28.2832C19.5778 28.9832 17.8445 29.3332 16 29.3332Z" fill="#BCBCBC"/>
</g>
</svg>
