<svg width="32" height="32" viewBox="0 0 32 32" fill="none" xmlns="http://www.w3.org/2000/svg">
<mask id="mask0_463_640" style="mask-type:alpha" maskUnits="userSpaceOnUse" x="0" y="0" width="32" height="32">
<rect width="32" height="32" fill="#D9D9D9"/>
</mask>
<g mask="url(#mask0_463_640)">
<path d="M11.6443 21.9108L19.111 14.4442V18.1998H21.3333V10.6665H13.8V12.8888H17.5223L10.089 20.3222L11.6443 21.9108ZM16 29.3332C14.1704 29.3332 12.4446 28.9832 10.8223 28.2832C9.20012 27.5832 7.78523 26.6295 6.57767 25.4222C5.37034 24.2146 4.41667 22.7997 3.71667 21.1775C3.01667 19.5553 2.66667 17.8294 2.66667 15.9998C2.66667 14.1554 3.01667 12.4221 3.71667 10.7998C4.41667 9.17762 5.37034 7.7665 6.57767 6.5665C7.78523 5.3665 9.20012 4.4165 10.8223 3.7165C12.4446 3.0165 14.1704 2.6665 16 2.6665C17.8444 2.6665 19.5778 3.0165 21.2 3.7165C22.8222 4.4165 24.2333 5.3665 25.4333 6.5665C26.6333 7.7665 27.5833 9.17762 28.2833 10.7998C28.9833 12.4221 29.3333 14.1554 29.3333 15.9998C29.3333 17.8294 28.9833 19.5553 28.2833 21.1775C27.5833 22.7997 26.6333 24.2146 25.4333 25.4222C24.2333 26.6295 22.8222 27.5832 21.2 28.2832C19.5778 28.9832 17.8444 29.3332 16 29.3332Z" fill="#BCBCBC"/>
</g>
</svg>
