<svg width="40" height="40" viewBox="0 0 40 40" fill="none" xmlns="http://www.w3.org/2000/svg">
<path d="M32.9954 8.67746C30.6302 7.64558 28.1332 6.91352 25.5684 6.5C25.2174 7.09789 24.8998 7.71304 24.617 8.34288C21.8849 7.95057 19.1065 7.95057 16.3744 8.34288C16.0914 7.71311 15.7739 7.09796 15.423 6.5C12.8565 6.91701 10.3579 7.65081 7.99029 8.68286C3.28997 15.3097 2.01578 21.7719 2.65287 28.1424C5.4055 30.0804 8.48647 31.5543 11.7619 32.5C12.4994 31.5548 13.152 30.552 13.7128 29.5023C12.6477 29.1232 11.6196 28.6555 10.6406 28.1046C10.8983 27.9265 11.1503 27.743 11.3938 27.565C14.2426 28.8416 17.3519 29.5035 20.4999 29.5035C23.648 29.5035 26.7573 28.8416 29.6061 27.565C29.8524 27.7565 30.1044 27.94 30.3593 28.1046C29.3783 28.6564 28.3484 29.125 27.2814 29.505C27.8415 30.5542 28.4942 31.5561 29.2323 32.5C32.5105 31.5581 35.5939 30.0849 38.347 28.1451C39.0945 20.7574 37.07 14.3545 32.9954 8.67746ZM14.5198 24.2246C12.7444 24.2246 11.2777 22.6893 11.2777 20.8005C11.2777 18.9118 12.6934 17.363 14.5141 17.363C16.3348 17.363 17.7902 18.9118 17.759 20.8005C17.7279 22.6893 16.3291 24.2246 14.5198 24.2246ZM26.4801 24.2246C24.7019 24.2246 23.2408 22.6893 23.2408 20.8005C23.2408 18.9118 24.6566 17.363 26.4801 17.363C28.3036 17.363 29.7477 18.9118 29.7165 20.8005C29.6854 22.6893 28.2894 24.2246 26.4801 24.2246Z" fill="#BCBCBC"/>
</svg>
