<svg width="1440" height="725" viewBox="0 0 1440 725" fill="none" xmlns="http://www.w3.org/2000/svg">
<g clip-path="url(#clip0_514_1635)">
<mask id="mask0_514_1635" style="mask-type:alpha" maskUnits="userSpaceOnUse" x="0" y="0" width="1440" height="725">
<path d="M1440 0H0V725H1440V0Z" fill="#5200FF"/>
</mask>
<g mask="url(#mask0_514_1635)">
<path d="M-44.5092 52.4706H-45.0092V53.1158L-44.3844 52.9547L-44.5092 52.4706ZM163.293 -1.09711L163.427 -1.57898L163.298 -1.61464L163.169 -1.58128L163.293 -1.09711ZM-44.5092 -37.0906L-44.6334 -37.5749L-45.0092 -37.4785V-37.0906H-44.5092ZM162.609 -90.1932L162.755 -90.6714L162.621 -90.7124L162.485 -90.6775L162.609 -90.1932ZM238.119 -65.8924L238.619 -65.8935L238.618 -66.2412L238.292 -66.3615L238.119 -65.8924ZM238.315 19.6706L238.182 20.1525L238.817 20.3283L238.815 19.6695L238.315 19.6706ZM79.0144 232.427L78.9009 231.94L78.8922 231.942L78.8835 231.945L79.0144 232.427ZM-84.5552 273.603H-85.0552V274.24L-84.4366 274.089L-84.5552 273.603ZM162.805 212.904L162.93 212.42L162.811 212.389L162.691 212.417L162.805 212.904ZM238.119 232.427L237.993 232.911L238.616 233.073L238.619 232.429L238.119 232.427ZM238.119 232.26L238.251 231.778L237.621 231.605L237.619 232.259L238.119 232.26ZM313.874 253.054L313.742 253.536L313.869 253.572L313.998 253.539L313.874 253.054ZM557.579 192.191L557.751 191.722L557.616 191.672L557.474 191.702L557.579 192.191ZM633.005 216.461L632.859 216.939L632.993 216.98L633.129 216.945L633.005 216.461ZM840.123 163.358L840.247 163.842L840.623 163.746V163.358H840.123ZM840.123 73.7967H840.623V73.1515L839.998 73.3126L840.123 73.7967ZM632.32 127.364L632.18 127.844L632.312 127.883L632.445 127.849L632.32 127.364ZM559.464 106.068L559.604 105.588L558.978 105.405L558.964 106.057L559.464 106.068ZM559.462 106.122L558.962 106.134L559.962 106.133L559.462 106.122ZM559.461 106.068L559.961 106.056L559.946 105.437L559.344 105.582L559.461 106.068ZM397.046 146.561L397.159 147.048L397.168 147.046L397.177 147.044L397.046 146.561ZM313.255 166.084L313.13 166.568L313.249 166.599L313.369 166.571L313.255 166.084ZM237.942 146.561L238.067 146.077L237.444 145.915L237.442 146.559L237.942 146.561ZM237.941 146.728L237.809 147.21L238.439 147.383L238.441 146.73L237.941 146.728ZM162.186 125.934L162.318 125.452L162.192 125.417L162.064 125.449L162.186 125.934ZM236.904 251.747L236.769 252.228L236.895 252.264L237.022 252.233L236.904 251.747ZM237.019 251.719H237.519V251.082L236.901 251.233L237.019 251.719ZM236.804 251.719L236.938 251.237L236.308 251.062L236.304 251.716L236.804 251.719ZM236.804 251.771L236.922 252.257L237.301 252.165L237.304 251.774L236.804 251.771ZM73.4495 292.799L73.5629 293.286L73.5717 293.284L73.5804 293.282L73.4495 292.799ZM-10.341 312.322L-10.4665 312.806L-10.3474 312.837L-10.2275 312.809L-10.341 312.322ZM-85.6547 292.799L-85.5292 292.315L-86.1524 292.154L-86.1547 292.797L-85.6547 292.799ZM-85.8516 378.396H-86.3516V378.777L-85.9839 378.878L-85.8516 378.396ZM-9.72222 399.292L-9.85457 399.775L-9.72772 399.809L-9.60016 399.777L-9.72222 399.292ZM236.61 338.82L236.782 338.35L236.671 338.309L236.554 338.323L236.61 338.82ZM312.439 361.688L312.304 362.17L312.433 362.206L312.563 362.172L312.439 361.688ZM519.557 308.585L519.681 309.07L520.057 308.973V308.585H519.557ZM519.557 219.024H520.057V218.379L519.432 218.54L519.557 219.024ZM311.754 272.592L311.62 273.074L311.749 273.11L311.879 273.076L311.754 272.592ZM237.019 251.779H236.519V252.159L236.885 252.261L237.019 251.779ZM238.315 124.123L238.199 124.609L238.823 124.759L238.815 124.118L238.315 124.123ZM161.827 105.777L161.943 105.291L161.826 105.263L161.709 105.291L161.827 105.777ZM238.119 37.9734H238.619V37.5888L238.247 37.4901L238.119 37.9734ZM163.131 18.0667L163.259 17.5834L163.136 17.5506L163.012 17.5811L163.131 18.0667ZM-84.5552 78.9179L-84.6745 78.4324L-85.0552 78.5259V78.9179H-84.5552ZM-84.5552 165.736H-85.0552V166.373L-84.437 166.222L-84.5552 165.736ZM312.211 379.096L312.094 379.582L312.212 379.61L312.329 379.582L312.211 379.096ZM235.722 360.75L235.839 360.263L235.215 360.114L235.222 360.755L235.722 360.75ZM558.593 319.137H559.093V318.5L558.475 318.651L558.593 319.137ZM558.593 405.955L558.712 406.44L559.093 406.347V405.955H558.593ZM310.907 466.806L310.778 467.289L310.902 467.322L311.026 467.292L310.907 466.806ZM235.919 446.899H235.419V447.284L235.791 447.383L235.919 446.899ZM716.596 2.34501L716.709 2.83197L716.718 2.82993L716.727 2.82758L716.596 2.34501ZM878.87 -38.5146L878.989 -38.029L879.37 -38.1222V-38.5146H878.87ZM632.805 21.8683L632.68 22.3523L632.799 22.3832L632.919 22.3552L632.805 21.8683ZM557.492 2.34501L557.617 1.86101L556.994 1.69945L556.992 2.34328L557.492 2.34501ZM557.295 87.9417H556.795V88.3229L557.163 88.4239L557.295 87.9417ZM633.424 108.838L633.292 109.321L633.419 109.355L633.546 109.323L633.424 108.838ZM879.976 48.3465L880.095 47.861L880.024 47.8437L879.952 47.8471L879.976 48.3465ZM1126.56 108.926L1126.44 109.412L1126.56 109.442L1126.68 109.41L1126.56 108.926ZM1201.54 89.0195L1201.67 89.5027L1202.04 89.404V89.0195H1201.54ZM1201.74 2.86974L1202.24 2.87535L1202.25 2.23392L1201.62 2.38354L1201.74 2.86974ZM1125.25 21.2159L1125.13 21.7017L1125.25 21.7303L1125.37 21.7021L1125.25 21.2159ZM880.166 -38.428H879.666V-38.0351L880.047 -37.9422L880.166 -38.428ZM880.166 -38.8312H880.666V-39.4679L880.047 -39.3169L880.166 -38.8312ZM879.339 -38.6292L879.221 -38.1434L879.339 -38.1146L879.458 -38.1435L879.339 -38.6292ZM878.87 -38.7433L878.988 -39.2291L878.37 -39.3796V-38.7433H878.87ZM556.689 215.89L556.806 215.404L556.182 215.254L556.189 215.896L556.689 215.89ZM633.178 234.237L633.061 234.723L633.178 234.751L633.296 234.722L633.178 234.237ZM556.886 302.04H556.386V302.425L556.758 302.523L556.886 302.04ZM631.873 321.947L631.745 322.43L631.869 322.463L631.993 322.432L631.873 321.947ZM879.56 261.096L879.679 261.581L880.06 261.488V261.096H879.56ZM879.56 174.277H880.06V173.641L879.441 173.791L879.56 174.277ZM917.519 71.1727L917.643 70.6885L917.019 70.5275V71.1727H917.519ZM1125.32 124.74L1125.2 125.225L1125.33 125.258L1125.45 125.222L1125.32 124.74ZM917.519 160.734H917.019V161.122L917.394 161.218L917.519 160.734ZM1124.64 213.837L1124.51 214.321L1124.65 214.356L1124.78 214.315L1124.64 213.837ZM1200.15 189.536L1200.32 190.005L1200.65 189.885V189.537L1200.15 189.536ZM1200.34 103.973L1200.84 103.974V103.315L1200.21 103.491L1200.34 103.973ZM1434.83 55.9611L1434.71 56.4452L1434.83 56.4786L1434.96 56.4429L1434.83 55.9611ZM1227.03 2.39341L1227.15 1.90924L1226.53 1.74818V2.39341H1227.03ZM1509.85 35.1933L1510.35 35.1945V34.5357L1509.72 34.7115L1509.85 35.1933ZM1509.66 120.756L1509.83 121.226L1510.15 121.105L1510.16 120.758L1509.66 120.756ZM1434.15 145.057L1434.02 145.542L1434.16 145.577L1434.29 145.535L1434.15 145.057ZM1227.03 91.9545H1226.53V92.3425L1226.9 92.4389L1227.03 91.9545ZM-44.3844 52.9547L163.418 -0.61293L163.169 -1.58128L-44.634 51.9864L-44.3844 52.9547ZM-45.0092 -37.0906V52.4706H-44.0092V-37.0906H-45.0092ZM162.485 -90.6775L-44.6334 -37.5749L-44.385 -36.6062L162.733 -89.7089L162.485 -90.6775ZM238.292 -66.3615C228.677 -69.9083 209.787 -75.9872 193.313 -81.176C185.073 -83.7713 177.434 -86.1451 171.855 -87.87C169.065 -88.7325 166.79 -89.4328 165.213 -89.9175C164.424 -90.1599 163.81 -90.3483 163.393 -90.4762C163.184 -90.5401 163.025 -90.5889 162.917 -90.6217C162.864 -90.6381 162.823 -90.6505 162.796 -90.6588C162.783 -90.663 162.772 -90.6661 162.765 -90.6682C162.762 -90.6693 162.759 -90.67 162.758 -90.6706C162.757 -90.6708 162.756 -90.671 162.756 -90.6712C162.755 -90.6713 162.755 -90.6714 162.609 -90.1932C162.463 -89.7151 162.463 -89.715 162.463 -89.7149C162.464 -89.7147 162.464 -89.7145 162.465 -89.7143C162.467 -89.7138 162.47 -89.713 162.473 -89.7119C162.48 -89.7099 162.49 -89.7067 162.504 -89.7026C162.531 -89.6943 162.571 -89.6819 162.625 -89.6655C162.732 -89.6327 162.891 -89.584 163.1 -89.5201C163.516 -89.3923 164.131 -89.2039 164.919 -88.9616C166.496 -88.4771 168.77 -87.777 171.559 -86.9146C177.138 -85.19 184.775 -82.8168 193.013 -80.2222C209.493 -75.0316 228.358 -68.9601 237.946 -65.4233L238.292 -66.3615ZM238.815 19.6695L238.619 -65.8935L237.619 -65.8912L237.815 19.6718L238.815 19.6695ZM163.16 -0.615227L238.182 20.1525L238.449 19.1888L163.427 -1.57898L163.16 -0.615227ZM78.8835 231.945C55.9042 238.177 15.017 248.469 -20.13 257.205C-37.7025 261.573 -53.8385 265.551 -65.5814 268.437C-71.4529 269.88 -76.226 271.051 -79.5313 271.86C-81.1839 272.265 -82.4695 272.579 -83.342 272.792C-83.7783 272.899 -84.1112 272.98 -84.3351 273.035C-84.447 273.062 -84.5317 273.083 -84.5884 273.097C-84.6168 273.104 -84.6381 273.109 -84.6524 273.112C-84.6595 273.114 -84.6648 273.116 -84.6684 273.116C-84.6702 273.117 -84.6715 273.117 -84.6724 273.117C-84.6733 273.118 -84.6738 273.118 -84.5552 273.603C-84.4366 274.089 -84.4362 274.089 -84.4353 274.089C-84.4344 274.089 -84.433 274.088 -84.4312 274.088C-84.4277 274.087 -84.4223 274.086 -84.4152 274.084C-84.4009 274.08 -84.3795 274.075 -84.3512 274.068C-84.2945 274.054 -84.2098 274.034 -84.0978 274.006C-83.8739 273.952 -83.5408 273.87 -83.1045 273.764C-82.2319 273.55 -80.9462 273.236 -79.2934 272.831C-75.9879 272.022 -71.2145 270.852 -65.3427 269.408C-53.5993 266.522 -37.4624 262.544 -19.8888 258.176C15.2563 249.44 56.1539 239.145 79.1453 232.91L78.8835 231.945ZM162.691 212.417L78.9009 231.94L79.1279 232.914L162.918 213.391L162.691 212.417ZM238.244 231.943L162.93 212.42L162.679 213.388L237.993 232.911L238.244 231.943ZM237.619 232.259V232.426L238.619 232.429V232.262L237.619 232.259ZM314.006 252.572L238.251 231.778L237.987 232.743L313.742 253.536L314.006 252.572ZM557.474 191.702C541.684 195.073 480.745 210.293 423.77 224.665C395.279 231.851 367.774 238.828 347.392 244.007C337.201 246.597 328.79 248.738 322.928 250.231C319.997 250.977 317.702 251.562 316.141 251.96C315.36 252.159 314.762 252.312 314.36 252.414C314.159 252.466 314.006 252.505 313.904 252.531C313.853 252.544 313.815 252.553 313.789 252.56C313.776 252.563 313.766 252.566 313.76 252.567C313.757 252.568 313.754 252.569 313.753 252.569C313.751 252.57 313.75 252.57 313.874 253.054C313.998 253.539 313.998 253.539 314 253.538C314.002 253.538 314.004 253.537 314.007 253.536C314.014 253.535 314.023 253.532 314.036 253.529C314.062 253.522 314.1 253.513 314.151 253.5C314.253 253.473 314.406 253.435 314.607 253.383C315.009 253.281 315.607 253.128 316.388 252.929C317.949 252.531 320.243 251.947 323.175 251.2C329.037 249.707 337.447 247.566 347.638 244.977C368.02 239.797 395.524 232.821 424.015 225.634C481.003 211.259 541.916 196.046 557.683 192.68L557.474 191.702ZM633.005 216.461C633.151 215.982 633.151 215.982 633.15 215.982C633.15 215.982 633.149 215.982 633.148 215.982C633.147 215.981 633.144 215.98 633.141 215.979C633.134 215.977 633.124 215.974 633.11 215.97C633.083 215.962 633.043 215.949 632.989 215.933C632.883 215.9 632.724 215.852 632.516 215.788C632.1 215.661 631.488 215.473 630.701 215.231C629.129 214.748 626.861 214.05 624.079 213.19C618.514 211.469 610.895 209.102 602.673 206.512C586.224 201.332 567.379 195.268 557.751 191.722L557.406 192.66C567.06 196.216 585.929 202.287 602.372 207.466C610.597 210.056 618.218 212.424 623.783 214.145C626.566 215.005 628.835 215.704 630.408 216.187C631.194 216.429 631.807 216.617 632.223 216.744C632.431 216.808 632.59 216.857 632.697 216.889C632.75 216.906 632.791 216.918 632.818 216.926C632.831 216.93 632.841 216.934 632.848 216.936C632.852 216.937 632.854 216.937 632.856 216.938C632.857 216.938 632.857 216.938 632.858 216.939C632.858 216.939 632.859 216.939 633.005 216.461ZM839.999 162.874L632.88 215.976L633.129 216.945L840.247 163.842L839.999 162.874ZM839.623 73.7967V163.358H840.623V73.7967H839.623ZM632.445 127.849L840.248 74.2809L839.998 73.3126L632.195 126.88L632.445 127.849ZM559.323 106.548L632.18 127.844L632.461 126.885L559.604 105.588L559.323 106.548ZM559.962 106.133L559.963 106.079L558.964 106.057L558.962 106.111L559.962 106.133ZM558.961 106.08L558.962 106.134L559.962 106.11L559.961 106.056L558.961 106.08ZM397.177 147.044C420.155 140.812 460.753 130.69 495.612 122.125C513.04 117.843 529.031 113.95 540.666 111.128C546.483 109.717 551.211 108.574 554.485 107.783C556.122 107.388 557.395 107.08 558.259 106.872C558.691 106.768 559.021 106.689 559.243 106.635C559.354 106.608 559.437 106.588 559.493 106.575C559.522 106.568 559.543 106.563 559.557 106.56C559.564 106.558 559.569 106.557 559.573 106.556C559.574 106.555 559.576 106.555 559.577 106.555C559.578 106.555 559.578 106.554 559.461 106.068C559.344 105.582 559.344 105.582 559.343 105.583C559.342 105.583 559.34 105.583 559.339 105.583C559.335 105.584 559.33 105.586 559.323 105.587C559.309 105.591 559.287 105.596 559.259 105.603C559.203 105.616 559.119 105.636 559.008 105.663C558.787 105.716 558.457 105.796 558.025 105.9C557.161 106.108 555.887 106.416 554.25 106.811C550.976 107.602 546.248 108.745 540.43 110.156C528.795 112.978 512.802 116.871 495.373 121.154C460.517 129.718 419.907 139.843 396.915 146.078L397.177 147.044ZM313.369 166.571L397.159 147.048L396.932 146.074L313.142 165.597L313.369 166.571ZM237.816 147.045L313.13 166.568L313.381 165.6L238.067 146.077L237.816 147.045ZM238.441 146.73L238.442 146.563L237.442 146.559L237.441 146.726L238.441 146.73ZM162.054 126.416L237.809 147.21L238.073 146.246L162.318 125.452L162.054 126.416ZM-85.0552 186.395C-85.0552 186.637 -84.8993 186.781 -84.8024 186.839C-84.7165 186.891 -84.6338 186.908 -84.5961 186.915C-84.5119 186.929 -84.4238 186.929 -84.3562 186.926C-84.2099 186.92 -84.0114 186.897 -83.7743 186.862C-83.294 186.791 -82.5908 186.661 -81.6855 186.479C-79.8717 186.113 -77.2161 185.53 -73.8418 184.76C-67.0917 183.219 -57.4509 180.928 -45.8844 178.132C-22.7508 172.541 8.09314 164.932 38.936 157.27C69.7791 149.609 100.622 141.896 123.754 136.099C135.32 133.2 144.959 130.78 151.706 129.085C155.079 128.237 157.73 127.571 159.537 127.116C160.441 126.889 161.133 126.714 161.6 126.597C161.834 126.538 162.011 126.494 162.129 126.464C162.189 126.449 162.233 126.438 162.263 126.43C162.278 126.426 162.289 126.424 162.297 126.422C162.301 126.421 162.303 126.42 162.305 126.42C162.307 126.419 162.308 126.419 162.186 125.934C162.064 125.449 162.063 125.449 162.061 125.45C162.059 125.45 162.057 125.451 162.053 125.452C162.045 125.454 162.034 125.457 162.019 125.46C161.989 125.468 161.945 125.479 161.885 125.494C161.767 125.524 161.59 125.568 161.356 125.627C160.889 125.745 160.197 125.919 159.293 126.146C157.486 126.601 154.835 127.267 151.462 128.115C144.715 129.81 135.077 132.23 123.511 135.129C100.379 140.926 69.5371 148.639 38.6949 156.3C7.85253 163.961 -22.9889 171.57 -46.1193 177.16C-57.6849 179.955 -67.3207 182.245 -74.0643 183.785C-77.4368 184.555 -80.0823 185.136 -81.8829 185.499C-82.7847 185.68 -83.467 185.805 -83.9205 185.872C-84.1502 185.906 -84.3056 185.923 -84.3965 185.927C-84.4476 185.929 -84.4488 185.925 -84.4244 185.929C-84.4166 185.931 -84.3564 185.94 -84.2855 185.983C-84.2036 186.033 -84.0552 186.165 -84.0552 186.395H-85.0552ZM-84.0552 273.603V186.395H-85.0552V273.603H-84.0552ZM237.022 252.233L237.137 252.204L236.901 251.233L236.785 251.261L237.022 252.233ZM236.67 252.201L236.769 252.228L237.038 251.265L236.938 251.237L236.67 252.201ZM237.304 251.774V251.722L236.304 251.716V251.768L237.304 251.774ZM73.5804 293.282C118.4 281.127 231.329 253.619 236.922 252.257L236.685 251.285C231.099 252.645 118.154 280.157 73.3186 292.317L73.5804 293.282ZM-10.2275 312.809L73.5629 293.286L73.336 292.312L-10.4545 311.835L-10.2275 312.809ZM-85.7801 293.283L-10.4665 312.806L-10.2155 311.838L-85.5292 292.315L-85.7801 293.283ZM-85.3516 378.396C-85.3516 363.94 -85.3023 342.541 -85.2531 324.756C-85.2285 315.864 -85.2039 307.875 -85.1854 302.109C-85.1762 299.226 -85.1685 296.899 -85.1631 295.293C-85.1604 294.49 -85.1583 293.867 -85.1569 293.444C-85.1562 293.233 -85.1556 293.072 -85.1552 292.964C-85.155 292.91 -85.1549 292.869 -85.1548 292.842C-85.1548 292.828 -85.1547 292.818 -85.1547 292.811C-85.1547 292.808 -85.1547 292.805 -85.1547 292.803C-85.1547 292.803 -85.1547 292.802 -85.1547 292.801C-85.1547 292.801 -85.1547 292.801 -85.6547 292.799C-86.1547 292.797 -86.1547 292.798 -86.1547 292.798C-86.1547 292.798 -86.1547 292.799 -86.1547 292.8C-86.1547 292.802 -86.1547 292.804 -86.1547 292.808C-86.1547 292.815 -86.1548 292.825 -86.1548 292.839C-86.1549 292.866 -86.155 292.907 -86.1552 292.961C-86.1556 293.069 -86.1562 293.23 -86.1569 293.441C-86.1583 293.863 -86.1604 294.486 -86.1631 295.289C-86.1685 296.896 -86.1762 299.223 -86.1854 302.106C-86.2039 307.872 -86.2285 315.861 -86.2531 324.753C-86.3023 342.538 -86.3516 363.938 -86.3516 378.396H-85.3516ZM-9.58987 398.81L-85.7192 377.914L-85.9839 378.878L-9.85457 399.775L-9.58987 398.81ZM236.554 338.323C235.124 338.485 230.192 339.558 222.713 341.294C215.213 343.035 205.11 345.452 193.301 348.316C169.684 354.045 139.239 361.565 109.144 369.045C79.0487 376.525 49.3016 383.966 27.0784 389.536C15.9668 392.322 6.73619 394.639 0.283424 396.261C-2.94295 397.072 -5.47488 397.708 -7.2002 398.142C-8.06287 398.359 -8.72388 398.526 -9.16924 398.638C-9.39191 398.694 -9.56066 398.736 -9.67376 398.765C-9.73031 398.779 -9.77293 398.79 -9.80143 398.797C-9.81567 398.8 -9.82639 398.803 -9.83354 398.805C-9.83712 398.806 -9.8398 398.806 -9.8416 398.807C-9.84339 398.807 -9.84428 398.808 -9.72222 399.292C-9.60016 399.777 -9.59926 399.777 -9.59747 399.777C-9.59568 399.776 -9.59299 399.775 -9.58942 399.775C-9.58227 399.773 -9.57156 399.77 -9.55732 399.766C-9.52884 399.759 -9.48621 399.749 -9.42967 399.734C-9.3166 399.706 -9.14785 399.663 -8.92519 399.607C-8.47987 399.495 -7.81889 399.329 -6.95626 399.112C-5.23101 398.678 -2.69917 398.041 0.52713 397.231C6.97974 395.609 16.2102 393.292 27.3216 390.506C49.5444 384.936 79.2908 377.495 109.385 370.016C139.48 362.536 169.922 355.016 193.537 349.288C205.345 346.424 215.444 344.008 222.939 342.268C230.455 340.524 235.31 339.47 236.667 339.316L236.554 338.323ZM312.439 361.688C312.573 361.207 312.573 361.207 312.572 361.206C312.572 361.206 312.571 361.206 312.57 361.206C312.569 361.205 312.566 361.205 312.563 361.204C312.556 361.202 312.546 361.199 312.532 361.195C312.505 361.188 312.465 361.176 312.411 361.161C312.304 361.131 312.145 361.087 311.936 361.028C311.519 360.911 310.905 360.739 310.116 360.517C308.538 360.073 306.261 359.431 303.469 358.638C297.884 357.052 290.235 354.863 281.977 352.451C265.453 347.625 246.513 341.913 236.782 338.35L236.438 339.289C246.207 342.865 265.181 348.587 281.696 353.411C289.958 355.824 297.61 358.013 303.196 359.6C305.989 360.393 308.266 361.035 309.845 361.48C310.634 361.702 311.249 361.874 311.666 361.991C311.875 362.05 312.034 362.094 312.142 362.124C312.195 362.139 312.236 362.151 312.263 362.158C312.277 362.162 312.287 362.165 312.294 362.167C312.297 362.168 312.3 362.169 312.301 362.169C312.302 362.169 312.304 362.169 312.304 362.17C312.305 362.17 312.304 362.17 312.439 361.688ZM519.433 308.101L312.314 361.204L312.563 362.172L519.681 309.07L519.433 308.101ZM519.057 219.024V308.585H520.057V219.024H519.057ZM311.879 273.076L519.682 219.509L519.432 218.54L311.629 272.108L311.879 273.076ZM236.885 252.261L311.62 273.074L311.888 272.11L237.153 251.297L236.885 252.261ZM236.519 251.719V251.779H237.519V251.719H236.519ZM238.432 123.637L161.943 105.291L161.71 106.263L238.199 124.609L238.432 123.637ZM237.619 82.2115C237.619 94.3943 237.668 104.873 237.717 112.307C237.742 116.024 237.766 118.979 237.785 121.005C237.794 122.018 237.802 122.799 237.807 123.327C237.81 123.591 237.812 123.791 237.813 123.926C237.814 123.993 237.815 124.044 237.815 124.078C237.815 124.095 237.815 124.107 237.815 124.116C237.815 124.12 237.815 124.123 237.815 124.126C237.815 124.127 237.815 124.127 237.815 124.128C237.815 124.128 237.815 124.128 237.815 124.129C237.815 124.129 237.815 124.129 238.315 124.123C238.815 124.118 238.815 124.119 238.815 124.118C238.815 124.117 238.815 124.116 238.815 124.114C238.815 124.112 238.815 124.109 238.815 124.105C238.815 124.096 238.815 124.084 238.815 124.067C238.814 124.033 238.814 123.982 238.813 123.915C238.812 123.78 238.81 123.58 238.807 123.316C238.802 122.789 238.794 122.009 238.785 120.996C238.766 118.971 238.742 116.016 238.717 112.3C238.668 104.869 238.619 94.3917 238.619 82.2115H237.619ZM237.619 37.9734V82.2115H238.619V37.9734H237.619ZM163.003 18.5499L237.99 38.4567L238.247 37.4901L163.259 17.5834L163.003 18.5499ZM-84.4359 79.4035L163.25 18.5522L163.012 17.5811L-84.6745 78.4324L-84.4359 79.4035ZM-84.0552 165.736V78.9179H-85.0552V165.736H-84.0552ZM161.709 105.291L-84.6734 165.25L-84.437 166.222L161.945 106.263L161.709 105.291ZM312.327 378.61L235.839 360.263L235.606 361.236L312.094 379.582L312.327 378.61ZM558.475 318.651L312.093 378.61L312.329 379.582L558.711 319.622L558.475 318.651ZM559.093 405.955V319.137H558.093V405.955H559.093ZM311.026 467.292L558.712 406.44L558.474 405.469L310.787 466.321L311.026 467.292ZM235.791 447.383L310.778 467.289L311.035 466.323L236.047 446.416L235.791 447.383ZM235.419 402.661V446.899H236.419V402.661H235.419ZM235.722 360.75C235.222 360.755 235.222 360.755 235.222 360.755C235.222 360.756 235.222 360.756 235.222 360.756C235.222 360.757 235.222 360.757 235.222 360.758C235.222 360.761 235.222 360.764 235.222 360.768C235.222 360.777 235.223 360.789 235.223 360.806C235.223 360.84 235.224 360.891 235.224 360.958C235.226 361.092 235.228 361.293 235.231 361.556C235.236 362.084 235.244 362.864 235.253 363.877C235.271 365.902 235.296 368.857 235.321 372.573C235.37 380.004 235.419 390.481 235.419 402.661H236.419C236.419 390.479 236.37 380 236.321 372.566C236.296 368.849 236.271 365.894 236.253 363.868C236.244 362.855 236.236 362.074 236.231 361.546C236.228 361.282 236.226 361.082 236.224 360.947C236.224 360.88 236.223 360.829 236.223 360.795C236.223 360.778 236.222 360.766 236.222 360.757C236.222 360.753 236.222 360.749 236.222 360.747C236.222 360.746 236.222 360.745 236.222 360.745V360.744C236.222 360.744 236.222 360.744 235.722 360.75ZM716.727 2.82758C759.857 -8.86915 866.059 -34.8681 878.989 -38.029L878.751 -39.0003C865.828 -35.841 759.61 -9.8384 716.465 1.86244L716.727 2.82758ZM632.919 22.3552L716.709 2.83197L716.482 1.85805L632.692 21.3813L632.919 22.3552ZM557.366 2.82901L632.68 22.3523L632.931 21.3843L557.617 1.86101L557.366 2.82901ZM557.795 87.9417C557.795 73.4855 557.844 52.087 557.893 34.302C557.918 25.4097 557.943 17.4208 557.961 11.6551C557.97 8.77222 557.978 6.44512 557.983 4.83875C557.986 4.03556 557.988 3.41256 557.99 2.99036C557.99 2.77925 557.991 2.61835 557.991 2.51021C557.991 2.45615 557.992 2.41529 557.992 2.38793C557.992 2.37426 557.992 2.36396 557.992 2.35709C557.992 2.35364 557.992 2.35106 557.992 2.34933C557.992 2.34847 557.992 2.34782 557.992 2.3474C557.992 2.34696 557.992 2.34675 557.492 2.34501C556.992 2.34328 556.992 2.34285 556.992 2.34328C556.992 2.34371 556.992 2.345 556.992 2.34586C556.992 2.34759 556.992 2.35017 556.992 2.35361C556.992 2.3605 556.992 2.3708 556.992 2.38447C556.992 2.41183 556.991 2.4527 556.991 2.50677C556.991 2.61491 556.99 2.77582 556.99 2.98694C556.988 3.40916 556.986 4.03219 556.983 4.83539C556.978 6.44181 556.97 8.76896 556.961 11.6519C556.943 17.4177 556.918 25.4067 556.893 34.2993C556.844 52.0842 556.795 73.484 556.795 87.9417H557.795ZM633.557 108.356L557.427 87.4595L557.163 88.4239L633.292 109.321L633.557 108.356ZM879.952 47.8471C879.672 47.8602 879.173 47.9366 878.501 48.06C877.817 48.1855 876.923 48.3656 875.835 48.5961C873.658 49.0573 870.694 49.7225 867.06 50.5621C859.789 52.2414 849.826 54.6204 838.088 57.4645C814.611 63.1529 784.032 70.7033 753.694 78.2424C723.355 85.7814 693.257 93.3092 670.744 98.9522C659.487 101.774 650.127 104.124 643.581 105.769C640.308 106.592 637.738 107.238 635.987 107.678C635.111 107.898 634.44 108.067 633.988 108.181C633.762 108.238 633.59 108.281 633.475 108.31C633.418 108.324 633.375 108.335 633.346 108.343C633.331 108.346 633.32 108.349 633.313 108.351C633.309 108.352 633.307 108.352 633.305 108.353C633.303 108.353 633.302 108.354 633.424 108.838C633.546 109.323 633.547 109.323 633.549 109.323C633.551 109.322 633.554 109.321 633.557 109.321C633.564 109.319 633.575 109.316 633.59 109.312C633.619 109.305 633.662 109.294 633.719 109.28C633.834 109.251 634.006 109.208 634.232 109.151C634.684 109.037 635.355 108.868 636.231 108.648C637.982 108.207 640.551 107.561 643.824 106.739C650.371 105.094 659.731 102.744 670.987 99.9222C693.5 94.2793 723.597 86.7517 753.935 79.2128C784.272 71.674 814.85 64.124 838.323 58.4364C850.06 55.5925 860.02 53.2145 867.285 51.5364C870.917 50.6973 873.874 50.0337 876.042 49.5744C877.126 49.3447 878.01 49.1667 878.681 49.0436C879.364 48.9183 879.798 48.8554 879.999 48.846L879.952 47.8471ZM1126.68 108.441L880.095 47.861L879.856 48.8321L1126.44 109.412L1126.68 108.441ZM1201.42 88.5362L1126.43 108.443L1126.68 109.41L1201.67 89.5027L1201.42 88.5362ZM1201.04 44.7814V89.0195H1202.04V44.7814H1201.04ZM1201.74 2.86974C1201.24 2.86413 1201.24 2.86421 1201.24 2.86435C1201.24 2.86407 1201.24 2.86448 1201.24 2.86435C1201.24 2.86488 1201.24 2.8663 1201.24 2.86738C1201.24 2.86952 1201.24 2.87274 1201.24 2.87701C1201.24 2.88556 1201.24 2.89835 1201.24 2.91534C1201.24 2.94933 1201.24 3.00014 1201.24 3.06741C1201.24 3.20198 1201.23 3.40247 1201.23 3.66627C1201.23 4.19388 1201.22 4.97472 1201.21 5.98785C1201.19 8.01408 1201.17 10.9694 1201.14 14.6861C1201.09 22.1196 1201.04 32.5986 1201.04 44.7814H1202.04C1202.04 32.6012 1202.09 22.1244 1202.14 14.6928C1202.17 10.9769 1202.19 8.02244 1202.21 5.99695C1202.22 4.98421 1202.23 4.20373 1202.23 3.67647C1202.23 3.41285 1202.24 3.21252 1202.24 3.07813C1202.24 3.01093 1202.24 2.96022 1202.24 2.92631C1202.24 2.90936 1202.24 2.89661 1202.24 2.8881C1202.24 2.88385 1202.24 2.88065 1202.24 2.87853C1202.24 2.87746 1202.24 2.87588 1202.24 2.87535C1202.24 2.87549 1202.24 2.87509 1202.24 2.87535C1202.24 2.87522 1202.24 2.87535 1201.74 2.86974ZM1125.37 21.7021L1201.86 3.35596L1201.62 2.38354L1125.14 20.7297L1125.37 21.7021ZM880.047 -37.9422L1125.13 21.7017L1125.37 20.7301L880.284 -38.9139L880.047 -37.9422ZM879.666 -38.8312V-38.428H880.666V-38.8312H879.666ZM879.458 -38.1435C879.729 -38.21 879.936 -38.2604 880.075 -38.2943C880.144 -38.3113 880.196 -38.324 880.231 -38.3326C880.249 -38.3369 880.262 -38.3401 880.271 -38.3422C880.275 -38.3433 880.279 -38.3441 880.281 -38.3447C880.282 -38.3449 880.283 -38.3451 880.283 -38.3453C880.283 -38.3453 880.284 -38.3455 880.166 -38.8312C880.047 -39.3169 880.047 -39.3169 880.047 -39.3169C880.047 -39.317 880.047 -39.3168 880.047 -39.3169C880.047 -39.3168 880.045 -39.3164 880.044 -39.3161C880.041 -39.3156 880.038 -39.3148 880.034 -39.3137C880.025 -39.3116 880.012 -39.3083 879.994 -39.3041C879.959 -39.2955 879.907 -39.2827 879.837 -39.2658C879.699 -39.2319 879.492 -39.1814 879.22 -39.1149L879.458 -38.1435ZM878.752 -38.2575L879.221 -38.1434L879.457 -39.115L878.988 -39.2291L878.752 -38.2575ZM879.37 -38.5146V-38.7433H878.37V-38.5146H879.37ZM556.572 216.377L633.061 234.723L633.294 233.75L556.806 215.404L556.572 216.377ZM557.386 257.802C557.386 245.619 557.337 235.14 557.287 227.707C557.263 223.99 557.238 221.035 557.22 219.008C557.21 217.995 557.203 217.214 557.197 216.687C557.195 216.423 557.193 216.223 557.191 216.088C557.19 216.021 557.19 215.97 557.19 215.936C557.189 215.919 557.189 215.906 557.189 215.898C557.189 215.893 557.189 215.89 557.189 215.888C557.189 215.887 557.189 215.886 557.189 215.886C557.189 215.885 557.189 215.885 557.189 215.885C557.189 215.885 557.189 215.885 556.689 215.89C556.189 215.896 556.189 215.896 556.189 215.896C556.189 215.896 556.189 215.896 556.189 215.897C556.189 215.897 556.189 215.898 556.189 215.899C556.189 215.901 556.189 215.904 556.189 215.909C556.189 215.917 556.189 215.93 556.19 215.947C556.19 215.981 556.19 216.032 556.191 216.099C556.193 216.233 556.195 216.433 556.197 216.697C556.203 217.224 556.211 218.005 556.22 219.018C556.238 221.043 556.263 223.998 556.287 227.713C556.337 235.145 556.386 245.622 556.386 257.802H557.386ZM557.386 302.04V257.802H556.386V302.04H557.386ZM632.002 321.464L557.014 301.557L556.758 302.523L631.745 322.43L632.002 321.464ZM879.44 260.61L631.754 321.461L631.993 322.432L879.679 261.581L879.44 260.61ZM879.06 174.277V261.096H880.06V174.277H879.06ZM633.296 234.722L879.678 174.763L879.441 173.791L633.059 233.751L633.296 234.722ZM917.394 71.6569L1125.2 125.225L1125.45 124.256L917.643 70.6885L917.394 71.6569ZM918.019 160.734V71.1727H917.019V160.734H918.019ZM1124.76 213.352L917.643 160.25L917.394 161.218L1124.51 214.321L1124.76 213.352ZM1199.97 189.067C1190.39 192.603 1171.52 198.675 1155.04 203.866C1146.8 206.46 1139.17 208.833 1133.59 210.558C1130.8 211.42 1128.52 212.12 1126.95 212.605C1126.16 212.847 1125.54 213.036 1125.13 213.163C1124.92 213.227 1124.76 213.276 1124.65 213.309C1124.6 213.325 1124.56 213.338 1124.53 213.346C1124.52 213.35 1124.51 213.353 1124.5 213.355C1124.5 213.356 1124.49 213.357 1124.49 213.358C1124.49 213.358 1124.49 213.358 1124.64 213.837C1124.78 214.315 1124.78 214.315 1124.78 214.315C1124.78 214.314 1124.78 214.314 1124.79 214.314C1124.79 214.313 1124.79 214.313 1124.79 214.312C1124.8 214.309 1124.81 214.306 1124.82 214.302C1124.85 214.294 1124.89 214.281 1124.95 214.265C1125.05 214.232 1125.21 214.183 1125.42 214.12C1125.84 213.992 1126.45 213.803 1127.24 213.561C1128.82 213.076 1131.09 212.376 1133.88 211.513C1139.46 209.788 1147.1 207.415 1155.34 204.819C1171.82 199.631 1190.7 193.552 1200.32 190.005L1199.97 189.067ZM1199.84 103.972L1199.65 189.535L1200.65 189.537L1200.84 103.974L1199.84 103.972ZM1125.45 125.222L1200.48 104.455L1200.21 103.491L1125.19 124.259L1125.45 125.222ZM1434.95 55.4769L1227.15 1.90924L1226.9 2.87759L1434.71 56.4452L1434.95 55.4769ZM1509.72 34.7115L1434.7 55.4792L1434.96 56.4429L1509.99 35.6752L1509.72 34.7115ZM1510.16 120.758L1510.35 35.1945L1509.35 35.1922L1509.16 120.755L1510.16 120.758ZM1434.15 145.057C1434.29 145.535 1434.29 145.535 1434.29 145.535C1434.3 145.534 1434.3 145.533 1434.3 145.532C1434.31 145.53 1434.32 145.527 1434.33 145.523C1434.36 145.515 1434.4 145.502 1434.45 145.486C1434.56 145.453 1434.72 145.404 1434.93 145.34C1435.35 145.212 1435.96 145.024 1436.75 144.782C1438.33 144.297 1440.6 143.597 1443.39 142.734C1448.97 141.009 1456.61 138.635 1464.85 136.04C1481.32 130.851 1500.21 124.772 1509.83 121.226L1509.48 120.287C1499.89 123.824 1481.03 129.896 1464.55 135.086C1456.31 137.681 1448.67 140.054 1443.1 141.779C1440.31 142.641 1438.03 143.341 1436.46 143.826C1435.67 144.068 1435.05 144.256 1434.64 144.384C1434.43 144.448 1434.27 144.497 1434.16 144.53C1434.11 144.546 1434.07 144.558 1434.04 144.567C1434.03 144.571 1434.02 144.574 1434.01 144.576C1434.01 144.577 1434 144.578 1434 144.578C1434 144.578 1434 144.579 1434.15 145.057ZM1226.9 92.4389L1434.02 145.542L1434.27 144.573L1227.15 91.4702L1226.9 92.4389ZM1226.53 2.39341V91.9545H1227.53V2.39341H1226.53Z" fill="url(#paint0_linear_514_1635)"/>
</g>
</g>
<defs>
<linearGradient id="paint0_linear_514_1635" x1="193.444" y1="-90.1932" x2="712" y2="466.806" gradientUnits="userSpaceOnUse">
<stop stop-color="#D5AC7F"/>
<stop offset="0.436878" stop-color="#E7B173"/>
</linearGradient>
<clipPath id="clip0_514_1635">
<rect width="1440" height="725" fill="white"/>
</clipPath>
</defs>
</svg>
