<svg width="1103" height="1113" viewBox="0 0 1103 1113" fill="none" xmlns="http://www.w3.org/2000/svg">
<path d="M112.391 362.709L189.894 262.632L883.89 876.309L798.94 962.704C697.816 1039.08 570.45 996.357 516.036 980.946C472.505 968.617 410.575 932.183 385.052 915.507C171.41 788.896 101.998 625.164 82.3868 531.661C65.8653 452.89 91.6625 387.253 112.391 362.709Z" fill="url(#paint0_linear_517_783)"/>
<path d="M908.888 852.662C995.028 748.729 904.765 531.79 707.28 368.116C509.796 204.442 279.873 156.012 193.734 259.946C107.594 363.879 197.857 580.818 395.342 744.492C592.826 908.166 822.748 956.596 908.888 852.662Z" fill="url(#paint1_linear_517_783)"/>
<path d="M848.094 792.795C919.876 706.186 847.733 527.955 686.959 394.706C526.185 261.458 337.662 223.649 265.88 310.259C194.098 396.869 266.241 575.099 427.015 708.348C587.788 841.597 776.312 879.405 848.094 792.795Z" fill="url(#paint2_radial_517_783)"/>
<path d="M638.977 439.411C777.781 554.452 838.361 710.383 774.286 787.694C710.211 865.005 564.41 814.299 420.308 703.545C286.27 589.264 207.557 448.407 271.632 371.096C335.706 293.786 500.172 324.371 638.977 439.411Z" fill="url(#paint3_linear_517_783)"/>
<path fill-rule="evenodd" clip-rule="evenodd" d="M521.812 453.722L397.393 513.157C345.629 544.462 379.35 587.092 420.037 606.115C480.152 634.22 608.27 694.094 639.823 708.755C671.377 723.416 669.342 701.157 664.38 688.195C645.489 639.968 603.41 532.631 586.218 489.103C569.026 445.574 536.118 447.379 521.812 453.722ZM482.774 511.26L612.301 663.431L417.913 565.588C413.124 562.789 405.726 555.631 414.444 549.392C423.161 543.154 463.629 521.371 482.774 511.26ZM542.983 475.013L503.321 496.478L627.543 651.423C608.503 602.499 569.453 495.73 564.239 483.429C560.26 474.044 547.909 472.5 542.983 475.013Z" fill="url(#paint4_linear_517_783)"/>
<path fill-rule="evenodd" clip-rule="evenodd" d="M522.036 449.362L397.617 508.797C345.853 540.103 379.574 582.733 420.261 601.755C480.376 629.86 608.494 689.735 640.048 704.395C671.601 719.056 669.566 696.798 664.604 683.836C645.713 635.609 603.634 528.272 586.442 484.743C569.25 441.215 536.342 443.019 522.036 449.362ZM482.998 506.901L612.525 659.071L418.137 561.228C413.348 558.429 405.95 551.271 414.668 545.033C423.385 538.794 463.854 517.012 482.998 506.901ZM543.207 470.653L503.545 492.118L627.767 647.064C608.728 598.14 569.677 491.371 564.463 479.07C560.485 469.684 548.133 468.141 543.207 470.653Z" fill="url(#paint5_linear_517_783)"/>
<defs>
<linearGradient id="paint0_linear_517_783" x1="82.9444" y1="362.547" x2="842.211" y2="951.122" gradientUnits="userSpaceOnUse">
<stop stop-color="#FFA200"/>
<stop offset="0.47" stop-color="#D58A00"/>
<stop offset="1" stop-color="#A05500"/>
</linearGradient>
<linearGradient id="paint1_linear_517_783" x1="334.448" y1="186.013" x2="816.634" y2="898.92" gradientUnits="userSpaceOnUse">
<stop stop-color="#FF9B10"/>
<stop offset="1" stop-color="#E58200"/>
</linearGradient>
<radialGradient id="paint2_radial_517_783" cx="0" cy="0" r="1" gradientUnits="userSpaceOnUse" gradientTransform="translate(460.388 569.706) rotate(-96.8521) scale(422.229 663.118)">
<stop stop-color="#B16E01"/>
<stop offset="1" stop-color="#D88500"/>
</radialGradient>
<linearGradient id="paint3_linear_517_783" x1="278.243" y1="363.119" x2="780.897" y2="779.717" gradientUnits="userSpaceOnUse">
<stop stop-color="#E48603"/>
<stop offset="1" stop-color="#954800"/>
</linearGradient>
<linearGradient id="paint4_linear_517_783" x1="454.64" y1="496.077" x2="663.46" y2="710.3" gradientUnits="userSpaceOnUse">
<stop stop-color="#C3C7CA"/>
<stop offset="1" stop-color="#6591A8"/>
</linearGradient>
<linearGradient id="paint5_linear_517_783" x1="515.62" y1="447.394" x2="631.484" y2="711.576" gradientUnits="userSpaceOnUse">
<stop stop-color="#E6F1F7"/>
<stop offset="1" stop-color="#A0BACB"/>
</linearGradient>
</defs>
</svg>
