<svg width="52" height="59" viewBox="0 0 52 59" fill="none" xmlns="http://www.w3.org/2000/svg">
<path d="M21.0115 57.399C19.5343 56.4134 18.3823 55.0124 17.7006 53.3727L0.998415 13.2874C0.427761 11.921 0.203554 10.4347 0.34572 8.96074C0.487886 7.48676 0.992017 6.07074 1.81331 4.83855C2.6346 3.60635 3.74762 2.59616 5.0534 1.89776C6.35918 1.19937 7.81729 0.834411 9.29811 0.835327H42.7025C44.1833 0.834411 45.6414 1.19937 46.9472 1.89776C48.253 2.59616 49.366 3.60635 50.1873 4.83855C51.0086 6.07074 51.5127 7.48676 51.6548 8.96074C51.797 10.4347 51.5728 11.921 51.0022 13.2874L34.3 53.3727C33.6183 55.0124 32.4662 56.4134 30.9891 57.399C29.512 58.3846 27.776 58.9106 26.0003 58.9106C24.2245 58.9106 22.4886 58.3846 21.0115 57.399Z" fill="white"/>
<path d="M20.0091 52.413L20.0083 52.4111L3.30611 12.3259L3.30533 12.324C2.89339 11.3377 2.73155 10.2648 2.83417 9.20076C2.9368 8.13674 3.30071 7.11457 3.89357 6.2251C4.48643 5.33563 5.28987 4.60641 6.23247 4.10226C7.17506 3.59812 8.22762 3.33467 9.29657 3.33533H9.29811L42.7025 3.33533L42.704 3.33533C43.773 3.33467 44.8255 3.59812 45.7681 4.10226C46.7107 4.6064 47.5141 5.33562 48.107 6.2251C48.6999 7.11457 49.0638 8.13674 49.1664 9.20076C49.269 10.2648 49.1072 11.3377 48.6953 12.324L48.6945 12.3259L31.9923 52.4111L31.9915 52.413C31.4995 53.5966 30.6678 54.608 29.6015 55.3194C28.5352 56.0309 27.2821 56.4106 26.0003 56.4106C24.7184 56.4106 23.4653 56.0309 22.399 55.3194C21.3328 54.608 20.5011 53.5966 20.0091 52.413Z" stroke="url(#paint0_linear_159_831)" stroke-opacity="0.5" stroke-width="5"/>
<defs>
<linearGradient id="paint0_linear_159_831" x1="-15.9778" y1="-131.45" x2="95.0296" y2="-125.016" gradientUnits="userSpaceOnUse">
<stop stop-color="white" stop-opacity="0.55"/>
<stop offset="0.405687" stop-color="white" stop-opacity="0.3"/>
<stop offset="0.574372" stop-color="white" stop-opacity="0.3"/>
<stop offset="1" stop-color="white" stop-opacity="0.35"/>
</linearGradient>
</defs>
</svg>
